<svg width="16" height="16" viewBox="0 0 16 16" fill="none" xmlns="http://www.w3.org/2000/svg">
<path d="M1.99999 8.00003C1.99985 9.57746 2.62091 11.0915 3.72875 12.2144C4.83659 13.3373 6.34208 13.9788 7.91937 14H7.99999C9.53234 14.0038 11.0073 13.4174 12.1187 12.3625C12.1665 12.3174 12.2048 12.2633 12.2317 12.2033C12.2585 12.1433 12.2732 12.0787 12.275 12.013C12.2769 11.9473 12.2658 11.882 12.2423 11.8206C12.2189 11.7592 12.1836 11.7031 12.1384 11.6553C12.0933 11.6076 12.0392 11.5692 11.9792 11.5424C11.9192 11.5156 11.8546 11.5009 11.7889 11.499C11.7232 11.4972 11.6579 11.5083 11.5965 11.5318C11.5351 11.5552 11.479 11.5905 11.4312 11.6357C10.7164 12.3098 9.81869 12.7584 8.85035 12.9254C7.88201 13.0924 6.88593 12.9703 5.98656 12.5745C5.08718 12.1786 4.32438 11.5265 3.79345 10.6997C3.26252 9.87285 2.98699 8.90789 3.00128 7.92537C3.01558 6.94284 3.31906 5.9863 3.87383 5.17525C4.42859 4.36421 5.21004 3.7346 6.12055 3.36509C7.03106 2.99558 8.03026 2.90255 8.99334 3.09762C9.95641 3.29269 10.8407 3.76721 11.5356 4.4619C11.5407 4.46743 11.5461 4.47264 11.5519 4.47753L12.2106 5.08065L11.1481 6.14315C11.0771 6.2128 11.0285 6.30202 11.0085 6.39942C10.9885 6.49683 10.998 6.59798 11.0358 6.68996C11.0736 6.78195 11.1379 6.86058 11.2206 6.91581C11.3033 6.97104 11.4006 7.00036 11.5 7.00003H14.5C14.6326 7.00003 14.7598 6.94735 14.8535 6.85358C14.9473 6.75981 15 6.63264 15 6.50003V3.50003C15.0006 3.40087 14.9716 3.30377 14.9169 3.22109C14.8622 3.13841 14.7841 3.07387 14.6925 3.03569C14.601 2.9975 14.5002 2.98739 14.403 3.00663C14.3057 3.02588 14.2163 3.07362 14.1462 3.14378L12.9181 4.37503L12.2344 3.75003C11.3944 2.9133 10.3253 2.3442 9.16216 2.11455C7.999 1.8849 6.79387 2.00501 5.69891 2.45971C4.60395 2.91441 3.66825 3.68332 3.00992 4.66937C2.3516 5.65542 2.00017 6.81441 1.99999 8.00003Z" fill="black"/>
</svg>
