<svg width="21" height="20" viewBox="0 0 21 20" fill="none" xmlns="http://www.w3.org/2000/svg">
<path d="M10.0001 5.75012V9.14621L7.17824 10.8392C7.03611 10.9245 6.9337 11.0629 6.89355 11.2238C6.85341 11.3846 6.87881 11.5549 6.96418 11.697C7.04955 11.8391 7.18788 11.9415 7.34875 11.9817C7.50963 12.0218 7.67985 11.9964 7.82199 11.9111L10.947 10.0361C11.0395 9.98049 11.116 9.90192 11.1691 9.808C11.2223 9.71409 11.2502 9.60802 11.2501 9.50012V5.75012C11.2501 5.58436 11.1843 5.42539 11.0671 5.30818C10.9498 5.19097 10.7909 5.12512 10.6251 5.12512C10.4594 5.12512 10.3004 5.19097 10.1832 5.30818C10.066 5.42539 10.0001 5.58436 10.0001 5.75012ZM2.88606 3.92277C3.00025 3.8754 3.12592 3.86296 3.24718 3.88701C3.36845 3.91107 3.47985 3.97055 3.56731 4.05793L4.53137 5.02434C4.78371 4.75012 5.04387 4.47746 5.32043 4.19699C6.36273 3.15458 7.68912 2.44243 9.13384 2.14954C10.5786 1.85664 12.0776 1.99599 13.4436 2.55017C14.8096 3.10435 15.9819 4.04878 16.8142 5.26546C17.6465 6.48214 18.1018 7.91712 18.1232 9.39108C18.1446 10.865 17.7312 12.3126 16.9346 13.553C16.138 14.7933 14.9935 15.7714 13.6442 16.365C12.2949 16.9586 10.8006 17.1415 9.34795 16.8906C7.89532 16.6398 6.54882 15.9665 5.47668 14.9548C5.41697 14.8984 5.36896 14.8307 5.33539 14.7558C5.30182 14.6808 5.28334 14.5999 5.28102 14.5178C5.2787 14.4357 5.29258 14.3539 5.32186 14.2771C5.35114 14.2004 5.39525 14.1301 5.45168 14.0704C5.50811 14.0107 5.57574 13.9627 5.65073 13.9291C5.72571 13.8956 5.80657 13.8771 5.88869 13.8748C5.97081 13.8724 6.05259 13.8863 6.12935 13.9156C6.20611 13.9449 6.27635 13.989 6.33606 14.0454C7.22943 14.8884 8.35138 15.4494 9.56175 15.6585C10.7721 15.8675 12.0173 15.7152 13.1416 15.2207C14.266 14.7262 15.2197 13.9114 15.8836 12.878C16.5476 11.8446 16.8923 10.6385 16.8747 9.41034C16.8572 8.18218 16.4781 6.98641 15.7849 5.97241C15.0918 4.95842 14.1151 4.17116 12.9771 3.70897C11.8391 3.24679 10.5901 3.13018 9.38622 3.37371C8.18232 3.61723 7.07685 4.2101 6.20793 5.07824C5.93137 5.35793 5.67121 5.63293 5.41809 5.90871L6.69231 7.18293C6.77981 7.27034 6.83942 7.38175 6.86357 7.50305C6.88773 7.62435 6.87535 7.7501 6.82801 7.86436C6.78066 7.97863 6.70048 8.07627 6.59761 8.14494C6.49474 8.21361 6.3738 8.25022 6.25012 8.25012H3.12512C2.95936 8.25012 2.80039 8.18427 2.68318 8.06706C2.56597 7.94985 2.50012 7.79088 2.50012 7.62512V4.50012C2.50014 4.37651 2.53682 4.25568 2.60552 4.15291C2.67422 4.05014 2.77184 3.97006 2.88606 3.92277Z" fill="black"/>
</svg>
