<svg width="14" height="14" viewBox="0 0 14 14" fill="none" xmlns="http://www.w3.org/2000/svg">
<path d="M10.243 3.70976L9.17647 4.77637L9.17643 4.77642C9.1634 4.78944 9.16342 4.81049 9.17642 4.8235L9.17651 4.82359C9.18939 4.83647 9.21047 4.83661 9.22359 4.82353L10.243 3.70976ZM10.243 3.70976C10.2561 3.6967 10.2772 3.6967 10.2903 3.70976L10.6438 3.35617L10.243 3.70976ZM8.46933 5.53061L8.15686 5.84303M8.46933 5.53061L0.289517 13.7104C0.497794 13.9187 0.835479 13.9187 1.04376 13.7104L8.51044 6.24375M8.46933 5.53061L8.15689 5.84305C8.15688 5.84305 8.15687 5.84304 8.15686 5.84303M8.46933 5.53061C8.46935 5.53063 8.46937 5.53066 8.46939 5.53068L8.62447 5.65841C8.70667 5.85255 8.66867 6.08551 8.51044 6.24375M8.15686 5.84303C8.14385 5.83004 8.12275 5.83005 8.10975 5.84306L0.643098 13.3097M8.15686 5.84303C8.16988 5.85604 8.16988 5.87717 8.15689 5.8902M0.643098 13.3097L0.289517 12.9561L0.643069 13.3097L0.643098 13.3097ZM0.643098 13.3097C0.629985 13.3228 0.630116 13.3439 0.643006 13.3568L0.643106 13.3569C0.656113 13.3699 0.67716 13.3699 0.690167 13.3569L0.690205 13.3568L8.15687 5.89023M8.15687 5.89023L8.51044 6.24375M8.15687 5.89023L8.15689 5.8902M8.15687 5.89023C8.15687 5.89022 8.15688 5.89021 8.15689 5.8902M8.51044 6.24375L8.15689 5.8902M10.2902 3.75693L9.22363 4.8235L10.2902 3.75693Z" fill="#09090B" stroke="#18181B"/>
</svg>
