<svg width="16" height="16" viewBox="0 0 16 16" fill="none" xmlns="http://www.w3.org/2000/svg">
<path d="M7.46657 7.96666H7.96657V7.46666V2.93333C7.96657 2.91492 7.9815 2.89999 7.9999 2.89999C8.01831 2.89999 8.03324 2.91492 8.03324 2.93333V7.46666V7.96666H8.53324H13.0666C13.085 7.96666 13.0999 7.98161 13.0999 7.99999C13.0999 8.01838 13.085 8.03333 13.0666 8.03333H8.53324H8.03324V8.53333V13.0667C8.03324 13.085 8.01828 13.1 7.9999 13.1C7.98152 13.1 7.96657 13.0851 7.96657 13.0667V8.53333V8.03333H7.46657H2.93324C2.91483 8.03333 2.8999 8.0184 2.8999 7.99999C2.8999 7.98159 2.91483 7.96666 2.93324 7.96666H7.46657Z" fill="#09090B" stroke="#FAFAFA"/>
</svg>
